<?xml version="1.0" encoding="UTF-8" standalone="no"?>
<!-- Created with Inkscape (http://www.inkscape.org/) -->

<svg
   xmlns:dc="http://purl.org/dc/elements/1.1/"
   xmlns:cc="http://creativecommons.org/ns#"
   xmlns:rdf="http://www.w3.org/1999/02/22-rdf-syntax-ns#"
   xmlns:svg="http://www.w3.org/2000/svg"
   xmlns="http://www.w3.org/2000/svg"
   xmlns:sodipodi="http://sodipodi.sourceforge.net/DTD/sodipodi-0.dtd"
   xmlns:inkscape="http://www.inkscape.org/namespaces/inkscape"
   id="svg3390"
   version="1.1"
   inkscape:version="0.91 r13725"
   xml:space="preserve"
   width="180.78226"
   height="81.087372"
   viewBox="0 0 180.78226 81.08737"
   sodipodi:docname="BR0000000270.svg"><metadata
     id="metadata3396"><rdf:RDF><cc:Work
         rdf:about=""><dc:format>image/svg+xml</dc:format><dc:type
           rdf:resource="http://purl.org/dc/dcmitype/StillImage" /><dc:title></dc:title></cc:Work></rdf:RDF></metadata><defs
     id="defs3394" /><sodipodi:namedview
     pagecolor="#000000"
     bordercolor="#666666"
     borderopacity="1"
     objecttolerance="10"
     gridtolerance="10"
     guidetolerance="10"
     inkscape:pageopacity="1"
     inkscape:pageshadow="2"
     inkscape:window-width="1916"
     inkscape:window-height="902"
     id="namedview3392"
     showgrid="false"
     showguides="true"
     inkscape:zoom="4.5323358"
     inkscape:cx="106.64217"
     inkscape:cy="40.570628"
     inkscape:window-x="0"
     inkscape:window-y="88"
     inkscape:window-maximized="0"
     inkscape:current-layer="g3398"
     fit-margin-top="0"
     fit-margin-left="0"
     fit-margin-right="0"
     fit-margin-bottom="0" /><g
     id="g3398"
     inkscape:groupmode="layer"
     inkscape:label="ink_ext_XXXXXX"
     transform="matrix(1.25,0,0,-1.25,-41.13775,122.373)"><g
       id="g3400"
       transform="scale(0.1,0.1)"><path
         d="m 1520.95,835.941 c 61.47,0 111.33,-49.867 111.33,-111.371 0,-61.511 -49.86,-111.316 -111.33,-111.316 l -88.32,0 0,63.586 88.32,0 c 26.34,0 47.73,21.375 47.73,47.73 0,26.387 -21.39,47.754 -47.73,47.754 l -88.32,0 0,63.617 88.32,0 z M 705.359,676.84 l 131.305,0 0,159.101 63.609,0 0,-222.687 -232.164,0 37.25,63.586 z m 324.021,-206.672 -53.814,0 0,63.605 53.814,0 c 65.88,0 119.3,53.387 119.3,119.286 0,65.847 -53.42,119.265 -119.3,119.265 l -53.814,0 0,63.617 53.814,0 c 101.03,0 182.9,-81.906 182.9,-182.882 0,-101.016 -81.87,-182.891 -182.9,-182.891 m 0,-75.52 c 100.04,0 186.9,56.372 230.53,139.125 l 93.23,0 0,-139.125 79.49,0 0,139.125 88.32,-0.031 -0.04,0 c 105.41,0 190.86,85.442 190.86,190.828 0,105.41 -85.38,190.852 -190.82,190.852 l -167.81,0 0,-238.582 -64.22,0.035 c -11.1,133.559 -123.09,238.547 -259.54,238.547 l -279.036,0 -304.215,-520.774 94.309,0 81.222,139.125 278.613,0 0,-139.125 129.107,0 z m 260.16,67.2 C 1230.48,382.504 1135.95,331.035 1029.38,331.035 l -192.716,0 0,139.133 -179.109,0 -80.825,-139.133 -247.628,0 377.539,647.949 322.739,0 c 106.57,0 201.1,-51.421 260.16,-130.836 l 0,130.836 231.41,0 c 140.51,0 254.41,-113.882 254.41,-254.414 0,-140.515 -113.98,-254.402 -254.48,-254.402 l -24.65,0 0,-139.133 -206.69,0 0,130.813 z m 264.47,-96.797 0,9.347 6.88,0 c 4.51,0 5.76,-1.41 5.76,-4.125 0,-2.8 -1.25,-5.054 -6.58,-5.222 l -6.06,0 z m 12.31,-3.699 0,0.132 c 4.91,1.02 7.43,4.321 7.43,8.528 0,8.254 -6.94,10.066 -13.62,10.066 l -11.82,0 0,-36.504 5.7,0 0,15.805 4.81,0 c 1.97,-0.188 3.87,0 5.27,-1.516 1.64,-1.726 1.64,-4.629 2.06,-7.734 0.27,-2.18 0.82,-4.492 1.24,-6.555 l 7.27,0 m -14.04,-13.289 c 17.18,0 31,13.867 31,31.133 0,17.109 -13.82,30.969 -31,30.969 -17.25,0 -31.13,-13.86 -31.13,-30.969 0,-17.266 13.88,-31.133 31.13,-31.133 m 0,5.449 c -14.2,0 -25.67,11.473 -25.67,25.684 0,14.043 11.47,25.52 25.67,25.52 14.15,0 25.54,-11.477 25.54,-25.52 0,-14.211 -11.39,-25.684 -25.54,-25.684"
         style="fill:#ffffff;fill-opacity:1;fill-rule:nonzero;stroke:none"
         id="path3402"
         inkscape:connector-curvature="0" /></g></g></svg>